<?xml version="1.0" standalone="no"?>
<!DOCTYPE svg PUBLIC "-//W3C//DTD SVG 20010904//EN"
 "http://www.w3.org/TR/2001/REC-SVG-20010904/DTD/svg10.dtd">
<svg version="1.0" xmlns="http://www.w3.org/2000/svg"
 width="100.000000pt" height="100.000000pt" viewBox="0 0 100.000000 100.000000"
 preserveAspectRatio="xMidYMid meet">
<metadata>
Created by potrace 1.14, written by Peter Selinger 2001-2017
</metadata>
<g transform="translate(0.000000,100.000000) scale(0.100000,-0.100000)"
fill="#000000" stroke="none">
<path d="M0 500 l0 -500 500 0 500 0 0 500 0 500 -500 0 -500 0 0 -500z m715
343 c-49 -74 -58 -94 -46 -106 17 -17 14 -47 -19 -169 -37 -137 -55 -184 -83
-218 -12 -15 -29 -37 -37 -50 -8 -12 -20 -29 -26 -37 -7 -10 -31 -17 -68 -19
-64 -3 -76 -11 -118 -68 -35 -49 -36 -41 -2 20 26 46 26 48 10 76 -16 27 -16
32 -1 86 10 31 30 106 45 166 16 60 34 114 41 120 9 8 10 7 4 -4 -6 -12 -5
-13 5 -3 7 7 13 26 13 43 0 20 6 32 19 36 10 3 18 11 18 18 0 16 44 26 107 26
41 0 48 4 95 55 54 60 70 70 43 28z"/>
<path d="M555 657 c-6 -7 -38 -44 -73 -83 -34 -39 -62 -74 -62 -77 0 -4 18 -7
40 -7 43 0 47 -5 27 -35 -7 -11 -28 -47 -46 -80 l-32 -60 33 35 c36 39 105
122 126 152 12 16 10 18 -15 19 -65 3 -66 5 -23 70 39 61 55 102 25 66z"/>
</g>
</svg>
