<svg id="svg" version="1.1" xmlns="http://www.w3.org/2000/svg" xmlns:xlink="http://www.w3.org/1999/xlink" width="400" height="400" viewBox="0, 0, 400,400"><g id="svgg"><path id="path0" d="M291.563 47.594 C 290.332 48.230,289.004 49.239,288.613 49.837 C 288.221 50.435,287.228 51.571,286.407 52.362 C 284.202 54.485,273.102 66.800,272.098 68.238 C 271.623 68.919,268.896 71.848,266.038 74.747 C 263.180 77.645,260.449 80.715,259.970 81.568 C 259.490 82.421,258.666 83.351,258.138 83.633 C 257.610 83.916,256.656 84.996,256.017 86.034 C 255.378 87.073,254.337 88.228,253.703 88.603 C 253.069 88.977,252.201 89.813,251.775 90.459 C 251.349 91.106,250.025 92.392,248.834 93.317 L 246.667 95.000 228.634 95.105 C 205.090 95.242,200.043 95.732,192.800 98.584 C 190.930 99.320,188.770 100.052,188.000 100.210 C 186.252 100.569,183.921 101.731,183.197 102.603 C 182.895 102.967,181.647 103.771,180.424 104.388 C 174.809 107.223,164.800 120.288,164.800 124.781 C 164.800 125.745,162.428 133.572,161.716 134.955 C 161.390 135.591,160.778 137.822,160.357 139.914 C 159.936 142.006,158.975 145.086,158.221 146.758 C 157.467 148.431,156.724 150.790,156.570 152.000 C 156.416 153.210,155.605 156.450,154.768 159.200 C 153.931 161.950,152.703 166.360,152.039 169.000 C 151.376 171.640,150.458 174.880,150.000 176.200 C 149.542 177.520,148.552 181.034,147.801 184.009 C 147.050 186.984,146.065 190.256,145.612 191.281 C 145.158 192.305,144.614 194.510,144.402 196.180 C 143.958 199.688,143.087 203.243,141.991 206.023 C 141.569 207.094,140.675 210.362,140.005 213.285 C 139.335 216.208,138.346 219.860,137.808 221.400 C 137.269 222.940,136.539 225.820,136.185 227.800 C 135.831 229.780,135.016 232.715,134.374 234.323 C 133.731 235.931,132.832 239.081,132.375 241.323 C 131.918 243.565,131.085 246.550,130.523 247.955 C 129.961 249.360,129.092 252.600,128.593 255.155 C 128.093 257.710,126.832 262.320,125.792 265.400 C 122.775 274.333,122.766 282.747,125.766 289.600 C 126.488 291.250,127.665 293.982,128.381 295.672 C 129.276 297.784,130.188 299.196,131.297 300.192 C 133.612 302.271,132.957 307.136,129.788 311.400 C 129.298 312.060,128.519 313.469,128.057 314.532 C 127.595 315.594,126.704 317.124,126.078 317.932 C 124.866 319.495,120.894 326.864,120.005 329.200 C 119.712 329.970,119.053 331.170,118.541 331.867 C 118.029 332.563,117.003 334.453,116.260 336.067 C 115.518 337.680,114.436 339.436,113.855 339.970 C 113.275 340.503,112.800 341.103,112.800 341.303 C 112.800 341.503,112.251 343.037,111.581 344.712 C 109.936 348.819,110.065 350.281,112.178 351.462 C 114.196 352.591,114.596 352.374,117.338 348.666 C 118.524 347.063,120.251 345.151,121.177 344.418 C 122.826 343.112,123.567 342.214,130.812 332.730 C 132.774 330.161,134.576 327.938,134.817 327.790 C 135.057 327.641,136.214 326.221,137.388 324.634 C 138.562 323.047,140.665 320.469,142.061 318.907 C 143.457 317.344,145.770 314.690,147.200 313.007 C 151.567 307.869,154.945 306.621,160.184 308.211 C 161.811 308.704,162.881 308.739,166.127 308.406 C 168.304 308.183,172.631 307.996,175.742 307.992 C 181.637 307.984,190.387 307.158,192.800 306.382 C 193.570 306.134,196.077 305.924,198.370 305.915 C 202.315 305.900,202.715 305.819,205.770 304.418 C 207.547 303.603,210.231 302.501,211.736 301.968 C 213.746 301.257,215.605 300.110,218.736 297.650 C 224.729 292.940,225.891 291.753,227.397 288.800 C 228.126 287.370,229.325 285.200,230.062 283.979 C 230.798 282.757,231.730 280.687,232.133 279.379 C 232.535 278.070,233.316 275.650,233.868 274.000 C 234.420 272.350,235.124 269.769,235.433 268.265 C 236.133 264.863,237.800 259.353,238.847 256.988 C 239.282 256.005,239.884 253.805,240.186 252.100 C 240.488 250.395,241.113 248.122,241.575 247.049 C 242.037 245.975,243.050 242.577,243.826 239.497 C 244.601 236.417,245.602 233.180,246.049 232.304 C 246.496 231.428,247.471 227.896,248.215 224.455 C 248.959 221.015,249.949 217.217,250.415 216.015 C 250.880 214.814,251.792 211.608,252.442 208.890 C 253.091 206.173,253.978 203.016,254.412 201.875 C 254.847 200.734,255.737 197.177,256.391 193.972 C 257.046 190.766,258.015 187.161,258.546 185.961 C 259.077 184.761,259.819 182.254,260.195 180.389 C 260.571 178.525,261.576 174.879,262.429 172.287 C 263.282 169.695,264.255 165.991,264.590 164.056 C 264.926 162.120,265.735 158.751,266.388 156.568 C 267.041 154.386,267.923 150.874,268.347 148.764 C 268.772 146.654,269.501 144.177,269.969 143.261 C 270.808 141.616,272.053 136.288,272.599 132.000 C 272.754 130.790,273.310 128.090,273.836 126.000 C 275.783 118.264,273.826 109.750,268.834 104.238 C 266.496 101.656,266.416 100.752,268.209 97.200 C 268.708 96.210,269.413 94.770,269.773 94.000 C 270.445 92.567,272.805 88.962,275.405 85.400 C 276.207 84.300,278.159 81.406,279.742 78.969 C 281.325 76.532,283.387 73.652,284.324 72.569 C 285.261 71.486,286.739 69.070,287.610 67.200 C 288.480 65.330,289.575 63.080,290.043 62.200 C 295.500 51.947,296.191 49.903,294.990 47.580 C 294.254 46.157,294.345 46.157,291.563 47.594 M206.881 164.242 C 206.807 165.710,206.492 166.978,206.045 167.600 C 205.650 168.150,204.577 169.969,203.660 171.642 C 202.742 173.315,201.640 175.002,201.211 175.390 C 200.781 175.779,200.219 176.750,199.961 177.548 C 199.703 178.347,198.554 180.260,197.407 181.800 C 194.274 186.007,194.290 185.956,195.207 188.621 C 197.286 194.662,204.476 197.467,214.200 196.030 C 225.562 194.350,226.586 197.530,218.000 207.823 C 217.010 209.010,215.300 211.083,214.200 212.430 C 213.100 213.777,211.464 215.716,210.564 216.739 C 209.663 217.763,208.198 219.680,207.306 221.000 C 206.414 222.320,204.512 224.583,203.079 226.030 C 201.646 227.476,200.133 229.220,199.716 229.905 C 199.067 230.973,191.167 239.937,185.430 246.114 C 184.453 247.166,183.452 248.635,183.207 249.378 C 182.731 250.822,182.041 251.320,181.219 250.812 C 180.339 250.268,181.102 246.540,182.395 245.066 C 183.006 244.370,183.995 242.630,184.592 241.200 C 185.190 239.770,186.107 238.033,186.630 237.339 C 187.153 236.646,187.930 235.192,188.357 234.108 C 189.373 231.532,192.559 225.775,194.691 222.666 C 197.249 218.935,198.373 216.643,200.122 211.600 C 203.057 203.137,202.213 200.846,196.288 201.192 C 182.885 201.976,172.800 200.660,172.800 198.128 C 172.800 197.826,175.452 194.776,178.693 191.349 C 181.934 187.922,184.996 184.430,185.498 183.589 C 186.000 182.747,187.031 181.675,187.789 181.207 C 188.547 180.738,190.603 178.677,192.357 176.626 C 194.111 174.575,196.361 172.230,197.358 171.413 C 198.354 170.597,199.816 168.954,200.607 167.763 C 201.398 166.572,202.553 165.335,203.174 165.013 C 203.795 164.692,204.688 163.778,205.157 162.983 C 206.383 160.904,207.026 161.373,206.881 164.242 " stroke="none" fill="#d4dbdb" fill-rule="evenodd"></path><path id="path1" d="M0.000 200.000 L 0.000 400.000 200.000 400.000 L 400.000 400.000 400.000 200.000 L 400.000 0.000 200.000 0.000 L 0.000 0.000 0.000 200.000 M294.990 47.580 C 296.191 49.903,295.500 51.947,290.043 62.200 C 289.575 63.080,288.480 65.330,287.610 67.200 C 286.739 69.070,285.261 71.486,284.324 72.569 C 283.387 73.652,281.325 76.532,279.742 78.969 C 278.159 81.406,276.207 84.300,275.405 85.400 C 272.805 88.962,270.445 92.567,269.773 94.000 C 269.413 94.770,268.708 96.210,268.209 97.200 C 266.416 100.752,266.496 101.656,268.834 104.238 C 273.826 109.750,275.783 118.264,273.836 126.000 C 273.310 128.090,272.754 130.790,272.599 132.000 C 272.053 136.288,270.808 141.616,269.969 143.261 C 269.501 144.177,268.772 146.654,268.347 148.764 C 267.923 150.874,267.041 154.386,266.388 156.568 C 265.735 158.751,264.926 162.120,264.590 164.056 C 264.255 165.991,263.282 169.695,262.429 172.287 C 261.576 174.879,260.571 178.525,260.195 180.389 C 259.819 182.254,259.077 184.761,258.546 185.961 C 258.015 187.161,257.046 190.766,256.391 193.972 C 255.737 197.177,254.847 200.734,254.412 201.875 C 253.978 203.016,253.091 206.173,252.442 208.890 C 251.792 211.608,250.880 214.814,250.415 216.015 C 249.949 217.217,248.959 221.015,248.215 224.455 C 247.471 227.896,246.496 231.428,246.049 232.304 C 245.602 233.180,244.601 236.417,243.826 239.497 C 243.050 242.577,242.037 245.975,241.575 247.049 C 241.113 248.122,240.488 250.395,240.186 252.100 C 239.884 253.805,239.282 256.005,238.847 256.988 C 237.800 259.353,236.133 264.863,235.433 268.265 C 235.124 269.769,234.420 272.350,233.868 274.000 C 233.316 275.650,232.535 278.070,232.133 279.379 C 231.730 280.687,230.798 282.757,230.062 283.979 C 229.325 285.200,228.126 287.370,227.397 288.800 C 225.891 291.753,224.729 292.940,218.736 297.650 C 215.605 300.110,213.746 301.257,211.736 301.968 C 210.231 302.501,207.547 303.603,205.770 304.418 C 202.715 305.819,202.315 305.900,198.370 305.915 C 196.077 305.924,193.570 306.134,192.800 306.382 C 190.387 307.158,181.637 307.984,175.742 307.992 C 172.631 307.996,168.304 308.183,166.127 308.406 C 162.881 308.739,161.811 308.704,160.184 308.211 C 154.945 306.621,151.567 307.869,147.200 313.007 C 145.770 314.690,143.457 317.344,142.061 318.907 C 140.665 320.469,138.562 323.047,137.388 324.634 C 136.214 326.221,135.057 327.641,134.817 327.790 C 134.576 327.938,132.774 330.161,130.812 332.730 C 123.567 342.214,122.826 343.112,121.177 344.418 C 120.251 345.151,118.524 347.063,117.338 348.666 C 114.596 352.374,114.196 352.591,112.178 351.462 C 110.065 350.281,109.936 348.819,111.581 344.712 C 112.251 343.037,112.800 341.503,112.800 341.303 C 112.800 341.103,113.275 340.503,113.855 339.970 C 114.436 339.436,115.518 337.680,116.260 336.067 C 117.003 334.453,118.029 332.563,118.541 331.867 C 119.053 331.170,119.712 329.970,120.005 329.200 C 120.894 326.864,124.866 319.495,126.078 317.932 C 126.704 317.124,127.595 315.594,128.057 314.532 C 128.519 313.469,129.298 312.060,129.788 311.400 C 132.957 307.136,133.612 302.271,131.297 300.192 C 130.188 299.196,129.276 297.784,128.381 295.672 C 127.665 293.982,126.488 291.250,125.766 289.600 C 122.766 282.747,122.775 274.333,125.792 265.400 C 126.832 262.320,128.093 257.710,128.593 255.155 C 129.092 252.600,129.961 249.360,130.523 247.955 C 131.085 246.550,131.918 243.565,132.375 241.323 C 132.832 239.081,133.731 235.931,134.374 234.323 C 135.016 232.715,135.831 229.780,136.185 227.800 C 136.539 225.820,137.269 222.940,137.808 221.400 C 138.346 219.860,139.335 216.208,140.005 213.285 C 140.675 210.362,141.569 207.094,141.991 206.023 C 143.087 203.243,143.958 199.688,144.402 196.180 C 144.614 194.510,145.158 192.305,145.612 191.281 C 146.065 190.256,147.050 186.984,147.801 184.009 C 148.552 181.034,149.542 177.520,150.000 176.200 C 150.458 174.880,151.376 171.640,152.039 169.000 C 152.703 166.360,153.931 161.950,154.768 159.200 C 155.605 156.450,156.416 153.210,156.570 152.000 C 156.724 150.790,157.467 148.431,158.221 146.758 C 158.975 145.086,159.936 142.006,160.357 139.914 C 160.778 137.822,161.390 135.591,161.716 134.955 C 162.428 133.572,164.800 125.745,164.800 124.781 C 164.800 120.288,174.809 107.223,180.424 104.388 C 181.647 103.771,182.895 102.967,183.197 102.603 C 183.921 101.731,186.252 100.569,188.000 100.210 C 188.770 100.052,190.930 99.320,192.800 98.584 C 200.043 95.732,205.090 95.242,228.634 95.105 L 246.667 95.000 248.834 93.317 C 250.025 92.392,251.349 91.106,251.775 90.459 C 252.201 89.813,253.069 88.977,253.703 88.603 C 254.337 88.228,255.378 87.073,256.017 86.034 C 256.656 84.996,257.610 83.916,258.138 83.633 C 258.666 83.351,259.490 82.421,259.970 81.568 C 260.449 80.715,263.180 77.645,266.038 74.747 C 268.896 71.848,271.623 68.919,272.098 68.238 C 273.102 66.800,284.202 54.485,286.407 52.362 C 287.228 51.571,288.221 50.435,288.613 49.837 C 289.209 48.927,293.125 46.483,294.090 46.419 C 294.249 46.409,294.654 46.931,294.990 47.580 M205.157 162.983 C 204.688 163.778,203.795 164.692,203.174 165.013 C 202.553 165.335,201.398 166.572,200.607 167.763 C 199.816 168.954,198.354 170.597,197.358 171.413 C 196.361 172.230,194.111 174.575,192.357 176.626 C 190.603 178.677,188.547 180.738,187.789 181.207 C 187.031 181.675,186.000 182.747,185.498 183.589 C 184.996 184.430,181.934 187.922,178.693 191.349 C 175.452 194.776,172.800 197.826,172.800 198.128 C 172.800 200.660,182.885 201.976,196.288 201.192 C 202.213 200.846,203.057 203.137,200.122 211.600 C 198.373 216.643,197.249 218.935,194.691 222.666 C 192.559 225.775,189.373 231.532,188.357 234.108 C 187.930 235.192,187.153 236.646,186.630 237.339 C 186.107 238.033,185.190 239.770,184.592 241.200 C 183.995 242.630,183.006 244.370,182.395 245.066 C 181.102 246.540,180.339 250.268,181.219 250.812 C 182.041 251.320,182.731 250.822,183.207 249.378 C 183.452 248.635,184.453 247.166,185.430 246.114 C 191.167 239.937,199.067 230.973,199.716 229.905 C 200.133 229.220,201.646 227.476,203.079 226.030 C 204.512 224.583,206.414 222.320,207.306 221.000 C 208.198 219.680,209.663 217.763,210.564 216.739 C 211.464 215.716,213.100 213.777,214.200 212.430 C 215.300 211.083,217.010 209.010,218.000 207.823 C 226.586 197.530,225.562 194.350,214.200 196.030 C 204.476 197.467,197.286 194.662,195.207 188.621 C 194.290 185.956,194.274 186.007,197.407 181.800 C 198.554 180.260,199.703 178.347,199.961 177.548 C 200.219 176.750,200.781 175.779,201.211 175.390 C 201.640 175.002,202.742 173.315,203.660 171.642 C 204.577 169.969,205.650 168.150,206.045 167.600 C 206.923 166.377,207.266 161.977,206.505 161.710 C 206.233 161.615,205.626 162.188,205.157 162.983 " stroke="none" fill="#040404" fill-rule="evenodd"></path></g></svg>